<svg width="194" height="194" viewBox="0 0 194 194" fill="none" xmlns="http://www.w3.org/2000/svg">
<path d="M85.0774 133.779L142.267 76.5899L132.971 67.4962L85.0774 115.39L60.8274 91.1399L51.7337 100.234L85.0774 133.779ZM97.0003 177.834C85.5489 177.834 74.9059 175.779 65.0712 171.67C55.2364 167.561 46.6816 161.869 39.4066 154.594C32.1316 147.319 26.4396 138.764 22.3305 128.929C18.2215 119.095 16.167 108.452 16.167 97.0003C16.167 85.6837 18.2215 75.108 22.3305 65.2732C26.4396 55.4385 32.1316 46.8837 39.4066 39.6087C46.6816 32.3337 55.2364 26.608 65.0712 22.4316C74.9059 18.2552 85.5489 16.167 97.0003 16.167C108.317 16.167 118.893 18.2552 128.727 22.4316C138.562 26.608 147.117 32.3337 154.392 39.6087C161.667 46.8837 167.393 55.4385 171.569 65.2732C175.745 75.108 177.834 85.6837 177.834 97.0003C177.834 108.452 175.745 119.095 171.569 128.929C167.393 138.764 161.667 147.319 154.392 154.594C147.117 161.869 138.562 167.561 128.727 171.67C118.893 175.779 108.317 177.834 97.0003 177.834ZM97.0003 165.709C116.535 165.709 132.87 159.141 146.006 146.006C159.141 132.87 165.709 116.535 165.709 97.0003C165.709 77.4656 159.141 61.1305 146.006 47.9951C132.87 34.8597 116.535 28.292 97.0003 28.292C77.4656 28.292 61.1305 34.8597 47.9951 47.9951C34.8597 61.1305 28.292 77.4656 28.292 97.0003C28.292 116.535 34.8597 132.87 47.9951 146.006C61.1305 159.141 77.4656 165.709 97.0003 165.709Z" fill="#43A047"/>
</svg>
