<svg width="16" height="16" viewBox="0 0 16 16" fill="none" xmlns="http://www.w3.org/2000/svg">
<path d="M11.9998 14.6668H3.99984C3.63317 14.6668 3.31928 14.5363 3.05817 14.2752C2.79706 14.0141 2.6665 13.7002 2.6665 13.3335V2.66683C2.6665 2.30016 2.79706 1.98627 3.05817 1.72516C3.31928 1.46405 3.63317 1.3335 3.99984 1.3335H9.33317L13.3332 5.3335V13.3335C13.3332 13.7002 13.2026 14.0141 12.9415 14.2752C12.6804 14.5363 12.3665 14.6668 11.9998 14.6668ZM8.6665 6.00016V2.66683H3.99984V13.3335H11.9998V6.00016H8.6665ZM3.99984 6.00016V2.66683V13.3335V6.00016ZM5.33317 8.66683H10.6665V7.3335H5.33317V8.66683ZM5.33317 10.6668H10.6665V9.3335H5.33317V10.6668ZM5.33317 12.6668H8.6665V11.3335H5.33317V12.6668Z" fill="white"/>
</svg>
