<svg width="40" height="40" viewBox="0 0 40 40" fill="none" xmlns="http://www.w3.org/2000/svg">
<path d="M7.5 35C6.83333 35 6.25 34.75 5.75 34.25C5.25 33.75 5 33.1667 5 32.5V7.5C5 6.83333 5.25 6.25 5.75 5.75C6.25 5.25 6.83333 5 7.5 5H32.5C33.1667 5 33.75 5.25 34.25 5.75C34.75 6.25 35 6.83333 35 7.5V32.5C35 33.1667 34.75 33.75 34.25 34.25C33.75 34.75 33.1667 35 32.5 35H7.5ZM20 27.7917C21.0556 27.7917 22.0625 27.4792 23.0208 26.8542C23.9792 26.2292 24.7778 25.3889 25.4167 24.3333H32.5V7.5H7.5V24.3333H14.5833C15.2222 25.3889 16.0208 26.2292 16.9792 26.8542C17.9375 27.4792 18.9444 27.7917 20 27.7917ZM7.5 26.8333V32.5H32.5V26.8333H26.5833C25.8611 27.8889 24.9167 28.7292 23.75 29.3542C22.5833 29.9792 21.3333 30.2917 20 30.2917C18.6667 30.2917 17.4167 29.9792 16.25 29.3542C15.0833 28.7292 14.1389 27.8889 13.4167 26.8333H7.5ZM7.5 32.5H13.4167C14.1389 32.5 15.0833 32.5 16.25 32.5C17.4167 32.5 18.6667 32.5 20 32.5C21.3333 32.5 22.5833 32.5 23.75 32.5C24.9167 32.5 25.8611 32.5 26.5833 32.5H32.5H7.5Z" fill="#0051A8"/>
</svg>
