<svg width="137" height="30" viewBox="0 0 137 30" fill="none" xmlns="http://www.w3.org/2000/svg">
<path d="M137 25.3481V30.0095H54.6695L54.6696 25.3481H137Z" fill="#E53139" fill-opacity="0.9412"/>
<path d="M54.6696 25.3481L54.6695 30.0095H0L3.07678e-06 25.3481H54.6696Z" fill="#0064AE"/>
<path d="M19.3771 18.7446L18.6574 16.8852C17.218 17.9649 15.2988 18.8047 13.0792 18.8047C9.09185 18.8047 7.08177 15.4455 7.08177 10.2275C7.08177 5.33777 9.00094 2.03923 13.1398 2.03923C15.119 2.03923 17.1877 2.60902 18.3569 3.50892L19.2564 1.64952C17.7869 0.599846 15.4786 0 13.0191 0C7.86257 0 4.68332 3.77841 4.68332 10.3174C4.68332 16.6467 7.44086 20.8444 12.961 20.8444C15.5695 20.8444 17.6675 19.9443 19.3771 18.7446Z" fill="white"/>
<path d="M33.3939 20.5378V18.6183H24.5177V11.2989H31.2651L31.5651 9.25939H24.5172V2.30115H33.3934V0.291719H22.2092V20.5376L33.3939 20.5378Z" fill="white"/>
<path d="M51.8791 20.5378V0.291969H49.6001L49.69 18.4061H49.5401L41.8028 0.291969H37.9645V20.5378H40.1536L40.0936 2.57266H40.2136L47.86 20.5378H51.8791Z" fill="white"/>
<path d="M57.9414 15.3854H66.2469L67.4764 20.5429H69.9953L64.8666 0.297019H59.9197L54.3718 20.5429H56.6208L57.9414 15.3854ZM63.1282 2.27968L65.7974 13.4078H58.4212L61.4212 2.27968H63.1282Z" fill="white"/>
<path d="M85.9726 14.9056C85.9726 12.3862 84.0234 10.5866 81.5333 10.1371V10.0471C83.3325 9.53717 84.8615 7.9177 84.8615 5.1877C84.8615 2.30842 82.5227 0.29798 78.3843 0.29798H73.1369V19.7937C74.5763 20.3635 76.2253 20.8434 79.0434 20.8434C82.9727 20.8434 85.9701 18.474 85.9701 14.9055L85.9726 14.9056ZM82.4651 5.39889C82.4651 7.8882 81.2957 9.38694 78.4172 9.38694H75.4475V2.21906H78.3869C80.9348 2.21906 82.4651 3.23893 82.4651 5.39889ZM83.5747 14.9056C83.5747 17.4843 81.6555 18.9845 79.047 18.9845C77.3677 18.9845 76.2894 18.6547 75.4485 18.3546V11.1867H78.6278C82.1353 11.1867 83.5747 12.6574 83.5747 14.9056Z" fill="white"/>
<path d="M91.6808 15.3854H99.9863L101.216 20.5429H103.735L98.606 0.297019H93.6591L88.1112 20.5429H90.3601L91.6808 15.3854ZM96.8676 2.27968L99.5368 13.4078H92.1606L95.1606 2.27968H96.8676Z" fill="white"/>
<path d="M118.424 15.0318C118.424 8.16451 108.349 9.84409 108.349 5.1337C108.349 3.51423 109.578 2.04479 112.427 2.04479C114.556 2.04479 116.475 2.79467 117.346 3.3344L118.155 1.475C116.896 0.725123 114.918 0.0053057 112.398 0.0053057C108.259 0.0053057 105.981 2.34459 105.981 5.10465C105.981 11.8836 116.027 9.81251 116.027 15.1215C116.027 17.431 114.408 18.8999 111.83 18.8999C109.911 18.8999 107.752 17.9702 106.522 16.9503L105.562 18.7799C107.181 19.9796 109.37 20.8495 111.709 20.8495C115.905 20.8495 118.424 18.2117 118.424 15.0318Z" fill="white"/>
<path d="M133.375 2.30241V0.29298H120.39V2.30241H125.458V20.5378H127.857V2.30241H133.375Z" fill="white"/>
</svg>
