<svg width="40" height="40" viewBox="0 0 40 40" fill="none" xmlns="http://www.w3.org/2000/svg">
<path d="M29.9998 36.6668H9.99984C9.08317 36.6668 8.29845 36.3404 7.64567 35.6877C6.99289 35.0349 6.6665 34.2502 6.6665 33.3335V6.66683C6.6665 5.75016 6.99289 4.96544 7.64567 4.31266C8.29845 3.65989 9.08317 3.3335 9.99984 3.3335H23.3332L33.3332 13.3335V33.3335C33.3332 34.2502 33.0068 35.0349 32.354 35.6877C31.7012 36.3404 30.9165 36.6668 29.9998 36.6668ZM21.6665 15.0002V6.66683H9.99984V33.3335H29.9998V15.0002H21.6665ZM9.99984 15.0002V6.66683V33.3335V15.0002ZM13.3332 21.6668H26.6665V18.3335H13.3332V21.6668ZM13.3332 26.6668H26.6665V23.3335H13.3332V26.6668ZM13.3332 31.6668H21.6665V28.3335H13.3332V31.6668Z" fill="#0051A8"/>
</svg>
