<svg width="16" height="16" viewBox="0 0 16 16" fill="none" xmlns="http://www.w3.org/2000/svg">
<path d="M3 14C2.73333 14 2.5 13.9 2.3 13.7C2.1 13.5 2 13.2667 2 13V3C2 2.73333 2.1 2.5 2.3 2.3C2.5 2.1 2.73333 2 3 2H13C13.2667 2 13.5 2.1 13.7 2.3C13.9 2.5 14 2.73333 14 3V13C14 13.2667 13.9 13.5 13.7 13.7C13.5 13.9 13.2667 14 13 14H3ZM8 11.1167C8.42222 11.1167 8.825 10.9917 9.20833 10.7417C9.59167 10.4917 9.91111 10.1556 10.1667 9.73333H13V3H3V9.73333H5.83333C6.08889 10.1556 6.40833 10.4917 6.79167 10.7417C7.175 10.9917 7.57778 11.1167 8 11.1167ZM3 10.7333V13H13V10.7333H10.6333C10.3444 11.1556 9.96667 11.4917 9.5 11.7417C9.03333 11.9917 8.53333 12.1167 8 12.1167C7.46667 12.1167 6.96667 11.9917 6.5 11.7417C6.03333 11.4917 5.65556 11.1556 5.36667 10.7333H3ZM3 13H5.36667C5.65556 13 6.03333 13 6.5 13C6.96667 13 7.46667 13 8 13C8.53333 13 9.03333 13 9.5 13C9.96667 13 10.3444 13 10.6333 13H13H3Z" fill="white"/>
</svg>
