<svg width="16" height="16" viewBox="0 0 16 16" fill="none" xmlns="http://www.w3.org/2000/svg">
<path d="M6.46683 14.6668L6.1335 12.5668C5.92238 12.4891 5.70016 12.3835 5.46683 12.2502C5.2335 12.1168 5.02794 11.9779 4.85016 11.8335L2.8835 12.7335L1.3335 10.0002L3.1335 8.6835C3.11127 8.5835 3.09738 8.46961 3.09183 8.34183C3.08627 8.21405 3.0835 8.10016 3.0835 8.00016C3.0835 7.90016 3.08627 7.78627 3.09183 7.6585C3.09738 7.53072 3.11127 7.41683 3.1335 7.31683L1.3335 6.00016L2.8835 3.26683L4.85016 4.16683C5.02794 4.02238 5.2335 3.8835 5.46683 3.75016C5.70016 3.61683 5.92238 3.51683 6.1335 3.45016L6.46683 1.3335H9.5335L9.86683 3.4335C10.0779 3.51127 10.3029 3.61405 10.5418 3.74183C10.7807 3.86961 10.9835 4.01127 11.1502 4.16683L13.1168 3.26683L14.6668 6.00016L12.8668 7.2835C12.8891 7.39461 12.9029 7.51405 12.9085 7.64183C12.9141 7.76961 12.9168 7.88905 12.9168 8.00016C12.9168 8.11127 12.9141 8.22794 12.9085 8.35016C12.9029 8.47238 12.8891 8.58905 12.8668 8.70016L14.6668 10.0002L13.1168 12.7335L11.1502 11.8335C10.9724 11.9779 10.7696 12.1196 10.5418 12.2585C10.3141 12.3974 10.0891 12.5002 9.86683 12.5668L9.5335 14.6668H6.46683ZM8.00016 10.1668C8.60016 10.1668 9.11127 9.95572 9.5335 9.5335C9.95572 9.11127 10.1668 8.60016 10.1668 8.00016C10.1668 7.40016 9.95572 6.88905 9.5335 6.46683C9.11127 6.04461 8.60016 5.8335 8.00016 5.8335C7.40016 5.8335 6.88905 6.04461 6.46683 6.46683C6.04461 6.88905 5.8335 7.40016 5.8335 8.00016C5.8335 8.60016 6.04461 9.11127 6.46683 9.5335C6.88905 9.95572 7.40016 10.1668 8.00016 10.1668ZM8.00016 9.16683C7.67794 9.16683 7.40294 9.05294 7.17516 8.82516C6.94738 8.59738 6.8335 8.32238 6.8335 8.00016C6.8335 7.67794 6.94738 7.40294 7.17516 7.17516C7.40294 6.94738 7.67794 6.8335 8.00016 6.8335C8.32238 6.8335 8.59738 6.94738 8.82516 7.17516C9.05294 7.40294 9.16683 7.67794 9.16683 8.00016C9.16683 8.32238 9.05294 8.59738 8.82516 8.82516C8.59738 9.05294 8.32238 9.16683 8.00016 9.16683ZM7.26683 13.6668H8.7335L8.96683 11.8002C9.3335 11.7113 9.68072 11.5724 10.0085 11.3835C10.3363 11.1946 10.6335 10.9668 10.9002 10.7002L12.6668 11.4668L13.3335 10.2668L11.7668 9.11683C11.8113 8.92794 11.8474 8.74183 11.8752 8.5585C11.9029 8.37516 11.9168 8.18905 11.9168 8.00016C11.9168 7.81127 11.9057 7.62516 11.8835 7.44183C11.8613 7.2585 11.8224 7.07238 11.7668 6.8835L13.3335 5.7335L12.6668 4.5335L10.9002 5.30016C10.6446 5.01127 10.3557 4.76961 10.0335 4.57516C9.71127 4.38072 9.35572 4.25572 8.96683 4.20016L8.7335 2.3335H7.26683L7.0335 4.20016C6.65572 4.27794 6.30294 4.41127 5.97516 4.60016C5.64738 4.78905 5.35572 5.02238 5.10016 5.30016L3.3335 4.5335L2.66683 5.7335L4.2335 6.8835C4.18905 7.07238 4.15294 7.2585 4.12516 7.44183C4.09738 7.62516 4.0835 7.81127 4.0835 8.00016C4.0835 8.18905 4.09738 8.37516 4.12516 8.5585C4.15294 8.74183 4.18905 8.92794 4.2335 9.11683L2.66683 10.2668L3.3335 11.4668L5.10016 10.7002C5.36683 10.9668 5.66405 11.1946 5.99183 11.3835C6.31961 11.5724 6.66683 11.7113 7.0335 11.8002L7.26683 13.6668Z" fill="white"/>
</svg>
