<svg width="40" height="40" viewBox="0 0 40 40" fill="none" xmlns="http://www.w3.org/2000/svg">
<path d="M16.1668 36.6668L15.3335 31.4168C14.8057 31.2224 14.2502 30.9585 13.6668 30.6252C13.0835 30.2918 12.5696 29.9446 12.1252 29.5835L7.2085 31.8335L3.3335 25.0002L7.8335 21.7085C7.77794 21.4585 7.74322 21.1738 7.72933 20.8543C7.71544 20.5349 7.7085 20.2502 7.7085 20.0002C7.7085 19.7502 7.71544 19.4654 7.72933 19.146C7.74322 18.8266 7.77794 18.5418 7.8335 18.2918L3.3335 15.0002L7.2085 8.16683L12.1252 10.4168C12.5696 10.0557 13.0835 9.7085 13.6668 9.37516C14.2502 9.04183 14.8057 8.79183 15.3335 8.62516L16.1668 3.3335H23.8335L24.6668 8.5835C25.1946 8.77794 25.7571 9.03489 26.3543 9.35433C26.9516 9.67377 27.4585 10.0279 27.8752 10.4168L32.7918 8.16683L36.6668 15.0002L32.1668 18.2085C32.2224 18.4863 32.2571 18.7849 32.271 19.1043C32.2849 19.4238 32.2918 19.7224 32.2918 20.0002C32.2918 20.2779 32.2849 20.5696 32.271 20.8752C32.2571 21.1807 32.2224 21.4724 32.1668 21.7502L36.6668 25.0002L32.7918 31.8335L27.8752 29.5835C27.4307 29.9446 26.9238 30.2988 26.3543 30.646C25.7849 30.9932 25.2224 31.2502 24.6668 31.4168L23.8335 36.6668H16.1668ZM20.0002 25.4168C21.5002 25.4168 22.7779 24.8891 23.8335 23.8335C24.8891 22.7779 25.4168 21.5002 25.4168 20.0002C25.4168 18.5002 24.8891 17.2224 23.8335 16.1668C22.7779 15.1113 21.5002 14.5835 20.0002 14.5835C18.5002 14.5835 17.2224 15.1113 16.1668 16.1668C15.1113 17.2224 14.5835 18.5002 14.5835 20.0002C14.5835 21.5002 15.1113 22.7779 16.1668 23.8335C17.2224 24.8891 18.5002 25.4168 20.0002 25.4168ZM20.0002 22.9168C19.1946 22.9168 18.5071 22.6321 17.9377 22.0627C17.3682 21.4932 17.0835 20.8057 17.0835 20.0002C17.0835 19.1946 17.3682 18.5071 17.9377 17.9377C18.5071 17.3682 19.1946 17.0835 20.0002 17.0835C20.8057 17.0835 21.4932 17.3682 22.0627 17.9377C22.6321 18.5071 22.9168 19.1946 22.9168 20.0002C22.9168 20.8057 22.6321 21.4932 22.0627 22.0627C21.4932 22.6321 20.8057 22.9168 20.0002 22.9168ZM18.1668 34.1668H21.8335L22.4168 29.5002C23.3335 29.2779 24.2016 28.9307 25.021 28.4585C25.8404 27.9863 26.5835 27.4168 27.2502 26.7502L31.6668 28.6668L33.3335 25.6668L29.4168 22.7918C29.5279 22.3196 29.6182 21.8543 29.6877 21.396C29.7571 20.9377 29.7918 20.4724 29.7918 20.0002C29.7918 19.5279 29.7641 19.0627 29.7085 18.6043C29.6529 18.146 29.5557 17.6807 29.4168 17.2085L33.3335 14.3335L31.6668 11.3335L27.2502 13.2502C26.6113 12.5279 25.8891 11.9238 25.0835 11.4377C24.2779 10.9516 23.3891 10.6391 22.4168 10.5002L21.8335 5.8335H18.1668L17.5835 10.5002C16.6391 10.6946 15.7571 11.0279 14.9377 11.5002C14.1182 11.9724 13.3891 12.5557 12.7502 13.2502L8.3335 11.3335L6.66683 14.3335L10.5835 17.2085C10.4724 17.6807 10.3821 18.146 10.3127 18.6043C10.2432 19.0627 10.2085 19.5279 10.2085 20.0002C10.2085 20.4724 10.2432 20.9377 10.3127 21.396C10.3821 21.8543 10.4724 22.3196 10.5835 22.7918L6.66683 25.6668L8.3335 28.6668L12.7502 26.7502C13.4168 27.4168 14.1599 27.9863 14.9793 28.4585C15.7988 28.9307 16.6668 29.2779 17.5835 29.5002L18.1668 34.1668Z" fill="#0051A8"/>
</svg>
